<svg width="16" height="18" viewBox="0 0 16 18" fill="none" xmlns="http://www.w3.org/2000/svg">
<path d="M12.9734 0H2.8934C1.6934 0 0.733398 0.956961 0.733398 2.07342V12.6C1.2134 12.3608 1.7734 12.1216 2.3334 12.1216C2.4934 12.1216 2.57339 12.1216 2.7334 12.1216H12.9734C14.1734 12.1216 15.1334 11.1646 15.1334 10.0481V2.07342C15.1334 0.956961 14.1734 0 12.9734 0Z" fill="#FEDA00"/>
<path d="M2.7334 14.04C1.85339 14.04 0.733398 14.67 0.733398 16.11C0.733398 16.92 1.3734 18 2.57339 18H12.9734C14.1734 18 15.1334 16.92 15.1334 15.66V13.5C14.5734 13.86 13.9334 14.04 13.2934 14.04H2.7334Z" fill="#FEDA00"/>
</svg>
