<svg width="15" height="18" viewBox="0 0 15 18" fill="none" xmlns="http://www.w3.org/2000/svg">
<path fill-rule="evenodd" clip-rule="evenodd" d="M3.3131 1.8C2.68191 1.8 2.10005 2.34195 2.10005 3.13163V12.028C2.47377 11.8704 2.89216 11.7929 3.34192 11.8194H11.6087C12.2399 11.8194 12.8218 11.2774 12.8218 10.4878V3.13163C12.8218 2.31924 12.2187 1.8 11.687 1.8H3.3131ZM0.300049 14.8684V3.13163C0.300049 1.44172 1.59645 0 3.3131 0H11.687C13.3466 0 14.6218 1.46444 14.6218 3.13163V10.4878C14.6218 12.1777 13.3254 13.6194 11.6087 13.6194H3.3131C3.292 13.6194 3.27092 13.6186 3.24988 13.6172C2.68142 13.5771 2.10005 14.0615 2.10005 14.8684C2.10005 15.658 2.68191 16.2 3.3131 16.2H11.687C12.3182 16.2 12.9001 15.658 12.9001 14.8684C12.9001 14.3713 13.303 13.9684 13.8001 13.9684C14.2971 13.9684 14.7001 14.3713 14.7001 14.8684C14.7001 16.5583 13.4037 18 11.687 18H3.3131C1.59645 18 0.300049 16.5583 0.300049 14.8684Z" fill="white"/>
</svg>
