<svg width="15" height="14" viewBox="0 0 15 14" fill="none" xmlns="http://www.w3.org/2000/svg">
<path d="M11.0006 14H3.02057C2.18057 14 1.41057 13.65 0.780571 13.02C0.220571 12.39 -0.0594289 11.55 0.0105711 10.71L0.990571 2.73C1.13057 1.19 2.39057 0 3.93057 0H10.0906C11.6306 0 12.9606 1.19 13.1006 2.73L14.0106 10.71C14.0806 11.55 13.8006 12.39 13.2406 13.02C12.6806 13.65 11.8406 14 11.0006 14ZM3.93057 1.4C3.09057 1.4 2.46057 2.03 2.39057 2.87L1.41057 10.85C1.34057 11.27 1.55057 11.69 1.83057 12.04C2.11057 12.39 2.53057 12.53 3.02057 12.53H11.0706C11.4906 12.53 11.9106 12.32 12.2606 12.04C12.5406 11.69 12.6806 11.27 12.6806 10.85L11.6306 2.87C11.5606 2.03 10.9306 1.4 10.0906 1.4H3.93057Z" fill="#1E272E"/>
<path d="M7.01042 6.58006C5.05043 6.58006 3.44043 4.97006 3.44043 3.01006C3.44043 2.59006 3.72043 2.31006 4.14043 2.31006C4.56043 2.31006 4.84043 2.59006 4.84043 3.01006C4.84043 4.20006 5.82042 5.18006 7.01042 5.18006C8.20042 5.18006 9.18042 4.20006 9.18042 3.01006C9.18042 2.59006 9.46042 2.31006 9.88042 2.31006C10.3004 2.31006 10.5804 2.59006 10.5804 3.01006C10.5804 4.97006 8.97042 6.58006 7.01042 6.58006Z" fill="#1E272E"/>
</svg>
