<svg width="24" height="30" viewBox="0 0 24 30" fill="none" xmlns="http://www.w3.org/2000/svg">
<path fill-rule="evenodd" clip-rule="evenodd" d="M0 5.1C0 2.39752 2.10634 0 4.97008 0H12.5137C14.089 0 15.685 0.5877 16.8906 1.78626L16.9051 1.80075L22.3299 7.34407C23.5324 8.54473 24.1434 10.3035 23.9713 11.9357V24.9C23.9713 27.6024 21.865 30 19.0012 30H4.97008C2.10634 30 0 27.6024 0 24.9V5.1ZM4.97008 3C3.91113 3 3 3.90247 3 5.1V24.9C3 26.0975 3.91113 27 4.97008 27H19.0012C20.0602 27 20.9713 26.0975 20.9713 24.9V11.85C20.9713 11.7875 20.9752 11.7249 20.9832 11.6628C21.0756 10.9268 20.7844 10.038 20.2068 9.46372L20.1922 9.44923L14.7688 3.90724C14.1645 3.31003 13.3494 3 12.5137 3H4.97008Z" fill="#1E272E"/>
</svg>
