<svg width="20" height="18" viewBox="0 0 20 18" fill="none" xmlns="http://www.w3.org/2000/svg">
<path d="M12.9976 7.5C12.1976 8.2 11.0976 8.5 9.99756 8.5C8.89756 8.5 7.89756 8.1 6.99756 7.5C6.19756 8.2 5.09756 8.5 3.99756 8.5C3.29756 8.5 2.59756 8.3 1.99756 8V13.9C1.99756 16.2 3.69756 18 5.79756 18H7.89756C8.39756 18 8.79756 17.6 8.79756 17V14C8.79756 13.3 9.29756 12.7 9.99756 12.7C10.6976 12.7 11.1976 13.3 11.1976 14V17C11.1976 17.5 11.5976 18 12.0976 18H14.1976C16.2976 18 17.9976 16.2 17.9976 14.1V8.1C17.3976 8.4 16.6976 8.6 15.9976 8.6C14.7976 8.6 13.7976 8.2 12.9976 7.5Z" fill="#FEDA00"/>
<path d="M19.7977 2.4L19.2977 1C19.0977 0.4 18.4977 0 17.7977 0H2.19769C1.49769 0 0.89769 0.4 0.69769 1L0.19769 2.4C-0.30231 3.7 0.19769 5.1 1.29769 5.9C1.89769 6.4 2.69769 6.6 3.49769 6.6C4.59769 6.6 5.49769 6.1 6.09769 5.4C6.29769 5.2 6.49769 5.1 6.79769 5.1C6.99769 5.1 7.29769 5.2 7.49769 5.4C7.99768 6.2 8.89768 6.7 9.99768 6.7C11.0977 6.7 11.9977 6.2 12.5977 5.5C12.7977 5.3 12.9977 5.2 13.2977 5.2C13.5977 5.2 13.7977 5.3 13.9977 5.5C14.5977 6.2 15.4977 6.7 16.5977 6.7C17.4977 6.7 18.1977 6.4 18.7977 6C19.7977 5.1 20.2977 3.8 19.7977 2.4Z" fill="#FEDA00"/>
</svg>
