<svg width="21" height="18" viewBox="0 0 21 18" fill="none" xmlns="http://www.w3.org/2000/svg">
<path d="M20.5793 3.08287L20.082 1.69061C19.7837 0.696132 18.7892 0 17.7947 0H3.8721C2.87762 0 1.88315 0.696132 1.5848 1.69061L1.08757 3.08287C0.689777 4.37569 0.888672 5.66851 1.68425 6.76243C1.88315 7.16022 2.28094 7.45856 2.57928 7.75691V14.1215C2.57928 16.3094 4.36933 18 6.45773 18H8.64558C9.24226 18 9.64005 17.6022 9.64005 17.0055V14.1215C9.64005 13.4254 10.1373 12.9282 10.8334 12.9282C11.5296 12.9282 12.0268 13.4254 12.0268 14.1215V17.0055C12.0268 17.6022 12.4246 18 13.0213 18H15.2091C17.397 18 19.0876 16.2099 19.0876 14.1215V10.9392C19.0876 10.3425 18.6898 9.94475 18.0931 9.94475C17.4964 9.94475 17.0986 10.3425 17.0986 10.9392V14.0221C17.0986 15.116 16.2036 15.9116 15.2091 15.9116H14.0157V14.0221C14.0157 12.232 12.6235 10.8398 10.8334 10.8398C9.04337 10.8398 7.6511 12.232 7.6511 14.0221V15.9116H6.45773C5.36381 15.9116 4.56823 15.0166 4.56823 14.0221V8.45304C4.76712 8.45304 4.86657 8.45304 5.06547 8.45304C6.15939 8.45304 7.25331 7.9558 7.94945 7.16022C8.64558 8.05525 9.7395 8.55249 10.8334 8.55249C11.9273 8.55249 13.0213 8.05525 13.7174 7.25967C14.4135 8.05525 15.5075 8.55249 16.6014 8.55249C17.9936 8.55249 19.187 7.9558 19.9826 6.86188C20.7782 5.66851 20.9771 4.37569 20.5793 3.08287ZM18.3914 5.66851C17.9936 6.26519 17.397 6.56354 16.7008 6.56354C15.8058 6.56354 15.0102 5.96685 14.8113 5.17127C14.7119 4.67403 14.2146 4.37569 13.7174 4.37569C13.2202 4.37569 12.8224 4.67403 12.6235 5.17127C12.4246 5.96685 11.629 6.56354 10.8334 6.56354C10.0378 6.56354 9.24226 5.96685 9.04337 5.17127C8.84447 4.67403 8.44668 4.37569 7.94945 4.37569C7.45221 4.37569 6.95497 4.67403 6.85552 5.17127C6.65663 5.96685 5.86105 6.56354 5.06547 6.56354C4.36933 6.56354 3.77265 6.26519 3.27541 5.66851C2.87762 5.07182 2.77817 4.37569 2.97707 3.67956L3.47431 2.28729C3.57375 2.0884 3.6732 1.98895 3.8721 1.98895H17.7947C17.9936 1.98895 18.1925 2.0884 18.1925 2.28729L18.6898 3.67956C18.8887 4.37569 18.7892 5.07182 18.3914 5.66851Z" fill="white"/>
</svg>
