<svg width="18" height="18" viewBox="0 0 18 18" fill="none" xmlns="http://www.w3.org/2000/svg">
<path fill-rule="evenodd" clip-rule="evenodd" d="M7.54209 0.416401C8.52554 -0.1388 9.72598 -0.1388 10.7094 0.416401C10.7169 0.420565 10.7242 0.424844 10.7314 0.429246L15.794 3.49933C16.793 4.06892 17.3485 5.09808 17.3485 6.21477V11.8684C17.3485 12.9481 16.8209 14.0058 15.8623 14.5089L10.8133 17.5707C10.806 17.5751 10.7987 17.5794 10.7912 17.5836C9.80779 18.1388 8.60736 18.1388 7.62391 17.5836C7.61646 17.5794 7.60918 17.5751 7.6019 17.5707L2.53928 14.5006C1.54028 13.931 0.984863 12.9019 0.984863 11.7852V6.21477C0.984863 5.0991 1.53926 4.07082 2.53654 3.50091L7.51508 0.432322C7.52397 0.426841 7.53292 0.421531 7.54209 0.416401ZM8.34898 1.86311L3.37281 4.93025C3.36393 4.93573 3.35493 4.94104 3.34584 4.94618C2.87959 5.20938 2.62122 5.67305 2.62122 6.21477V11.7852C2.62122 12.3269 2.87959 12.7906 3.34584 13.0538C3.35322 13.058 3.36053 13.0622 3.36778 13.0667L8.4285 16.1356C8.91262 16.4043 9.50253 16.4043 9.98665 16.1356L15.0473 13.0667C15.0648 13.0561 15.0826 13.0462 15.1008 13.037C15.4325 12.8684 15.7121 12.4403 15.7121 11.8684V6.21477C15.7121 5.67305 15.4537 5.20938 14.9875 4.94618C14.9801 4.942 14.9728 4.93772 14.9655 4.93333L9.90483 1.86439C9.42153 1.59605 8.83269 1.59562 8.34898 1.86311ZM9.16667 7.29562C8.21774 7.29562 7.44848 8.07731 7.44848 9.04154C7.44848 10.0058 8.21774 10.7875 9.16667 10.7875C10.1156 10.7875 10.8848 10.0058 10.8848 9.04154C10.8848 8.07731 10.1156 7.29562 9.16667 7.29562ZM5.81212 9.04154C5.81212 7.1589 7.314 5.63278 9.16667 5.63278C11.0194 5.63278 12.5212 7.1589 12.5212 9.04154C12.5212 10.9242 11.0194 12.4503 9.16667 12.4503C7.314 12.4503 5.81212 10.9242 5.81212 9.04154Z" fill="white"/>
</svg>
