<svg width="17" height="18" viewBox="0 0 17 18" fill="none" xmlns="http://www.w3.org/2000/svg">
<path d="M8.74017 5.87854C7.01623 5.87854 5.61865 7.27611 5.61865 9.00006C5.61865 10.724 7.01623 12.1216 8.74017 12.1216C10.4641 12.1216 11.8617 10.724 11.8617 9.00006C11.8617 7.27611 10.4641 5.87854 8.74017 5.87854Z" fill="#FEDA00"/>
<path fill-rule="evenodd" clip-rule="evenodd" d="M9.39299 0.169217C8.98691 -0.0564058 8.49313 -0.0564058 8.08695 0.169217L1.17161 4.01108C0.744733 4.24823 0.47998 4.69818 0.47998 5.18652V12.8135C0.47998 13.3018 0.744733 13.7518 1.17161 13.9889L8.08695 17.8308C8.49313 18.0564 8.98691 18.0564 9.39299 17.8308L16.3083 13.9889C16.7353 13.7518 17 13.3018 17 12.8135V5.18652C17 4.69818 16.7353 4.24823 16.3083 4.01108L9.39299 0.169217ZM4.17776 8.99997C4.17776 6.48034 6.22033 4.43776 8.73997 4.43776C11.2597 4.43776 13.3022 6.48034 13.3022 8.99997C13.3022 11.5197 11.2597 13.5622 8.73997 13.5622C6.22033 13.5622 4.17776 11.5197 4.17776 8.99997Z" fill="#FEDA00"/>
</svg>
