<svg width="18" height="18" viewBox="0 0 18 18" fill="none" xmlns="http://www.w3.org/2000/svg">
<path d="M4.56376 18C3.89995 18 3.3191 17.7532 2.90421 17.3418L0.663824 15.1201C0.248932 14.7087 0 14.0504 0 13.4744C0 12.8984 0.248932 12.2402 0.663824 11.8287L3.23612 9.1134C2.73826 6.97401 3.23612 4.75233 4.48078 3.02438C6.55523 0.30901 10.0402 -0.678397 13.1934 0.473579C13.4423 0.555864 13.6913 0.802718 13.6913 1.04956C13.6913 1.29642 13.6913 1.62555 13.4423 1.79012L10.953 4.25863C10.5382 4.67005 10.2892 5.24604 10.2892 5.82202C10.2892 6.31572 10.5381 6.80939 10.87 7.13855C11.202 7.4677 11.6998 7.63224 12.1977 7.63224C12.6956 7.63224 13.1934 7.4677 13.5254 7.05624L16.1806 4.4232C16.3465 4.25863 16.6785 4.17634 16.9275 4.17634C17.1763 4.25863 17.4253 4.4232 17.5083 4.67005C18.587 7.38539 17.8401 10.5122 15.7657 12.5693C13.9402 14.3795 11.2849 15.1201 8.71266 14.5441L6.22332 17.2595C5.80843 17.7532 5.22759 18 4.56376 18Z" fill="#FEDA00"/>
</svg>
