<svg width="19" height="18" viewBox="0 0 19 18" fill="none" xmlns="http://www.w3.org/2000/svg">
<path d="M17.795 4.85682C17.7122 4.60883 17.4639 4.36084 17.2156 4.36084C16.9673 4.27818 16.6362 4.36084 16.4706 4.60883L13.8218 7.25399C13.4907 7.58462 12.994 7.74997 12.4974 7.83261C12.0008 7.83261 11.5868 7.66734 11.173 7.33663C10.8419 7.006 10.5936 6.51004 10.5936 6.01408C10.5936 5.43544 10.8419 4.85682 11.2557 4.44351L13.739 1.96366C13.9046 1.79834 13.9874 1.46769 13.9874 1.2197C13.9874 0.971717 13.6563 0.558413 13.4079 0.475752C10.2624 -0.68151 6.78586 0.31043 4.71647 3.03826C3.39206 4.77415 2.97818 7.006 3.47484 9.1552L0.908786 11.7178C0.494909 12.131 0.246582 12.7924 0.246582 13.371C0.246582 13.9496 0.494909 14.6109 0.908786 15.0242L3.06096 17.3387C3.47483 17.752 4.13704 18 4.71647 18C5.2959 18 5.95811 17.752 6.37199 17.3387L8.93805 14.7762C11.4213 15.3548 14.0701 14.6109 15.9739 12.7923C18.1262 10.7258 18.7883 7.58462 17.795 4.85682ZM14.8979 11.635C13.4079 13.123 11.173 13.7016 9.10357 13.123C8.77245 13.0403 8.52413 13.123 8.27582 13.371L5.37868 16.2641C5.13035 16.5121 4.63369 16.5121 4.30259 16.2641L2.06765 14.0322C1.90209 13.7842 1.81932 13.619 1.81932 13.4536C1.81932 13.2883 1.90209 13.0403 2.06765 12.9576L4.96479 10.0645C5.21312 9.81654 5.2959 9.56855 5.13035 9.23792C4.63369 7.41935 4.96479 5.43544 6.04088 4.0302C7.19974 2.45963 8.93805 1.63301 10.7591 1.63301C11.0074 1.63301 11.2557 1.63301 11.5041 1.71567L10.0141 3.20358C9.26917 3.86488 8.85525 4.93948 8.85525 5.93142C8.85525 6.92336 9.26917 7.74997 9.93132 8.41123C10.5936 8.98993 11.4213 9.32056 12.3319 9.32056C12.3319 9.32056 12.3319 9.32056 12.4146 9.32056C13.3251 9.32056 14.2357 8.98993 14.8979 8.24596L16.4706 6.67537C16.8017 8.49395 16.1395 10.3125 14.8979 11.635Z" fill="white"/>
</svg>
